<svg width="599" height="496" viewBox="0 0 599 496" fill="none" xmlns="http://www.w3.org/2000/svg">
<path d="M87.3075 412.679C98.3562 412.679 108.911 410.564 118.591 406.716C132.637 434.176 161.187 452.972 194.125 452.972C234.765 452.972 268.724 424.36 277.004 386.165C287.883 391.245 300.017 394.082 312.814 394.082C359.654 394.082 397.621 356.071 397.621 309.188C397.621 262.305 359.654 224.294 312.814 224.294C300.815 224.294 289.398 226.788 279.052 231.287C264.08 207.239 237.422 191.234 207.027 191.234C168.541 191.234 136.045 216.896 125.678 252.056C114.156 246.195 101.117 242.891 87.3075 242.891C40.4671 242.891 2.5 280.901 2.5 327.785C2.5 374.668 40.4671 412.679 87.3075 412.679Z" stroke="black" stroke-width="5"/>
<path fill-rule="evenodd" clip-rule="evenodd" d="M374.985 363.185C428.489 352.199 468.725 304.799 468.725 247.998C468.725 183.062 416.137 130.411 351.256 130.411C302.665 130.411 260.969 159.942 243.095 202.048C244.601 202.784 246.082 203.565 247.535 204.389C264.557 163.866 304.587 135.411 351.256 135.411C413.371 135.411 463.725 185.818 463.725 247.998C463.725 300.258 428.156 344.201 379.931 356.893C378.383 359.071 376.732 361.171 374.985 363.185ZM137.323 232.293H120.05C111.656 232.293 104.809 238.884 104.378 247.167C106.059 247.522 107.721 247.928 109.363 248.384C109.358 248.256 109.356 248.127 109.356 247.998C109.356 242.086 114.144 237.293 120.05 237.293H134.418C135.329 235.59 136.298 233.922 137.323 232.293ZM220.209 446.251C219.334 452.41 222.187 458.765 227.902 462.068C235.412 466.408 245.012 463.83 249.345 456.318L285.379 393.84C286.523 391.855 287.186 389.724 287.403 387.582C285.738 387.042 284.097 386.45 282.48 385.808C282.514 387.686 282.054 389.597 281.047 391.342L245.014 453.82C242.06 458.941 235.519 460.695 230.404 457.739C225.601 454.963 223.763 449.022 226 444.068C224.105 444.865 222.174 445.594 220.209 446.251ZM582.462 232.293H510.187C501.515 232.293 494.494 239.329 494.494 247.998C494.494 256.667 501.515 263.703 510.187 263.703H582.462C591.135 263.703 598.156 256.667 598.156 247.998C598.156 239.329 591.135 232.293 582.462 232.293ZM221.367 154.64L158.954 118.568C151.445 114.228 141.844 116.806 137.512 124.318C133.181 131.827 135.749 141.431 143.256 145.77L205.668 181.842C213.178 186.182 222.778 183.604 227.111 176.092C231.442 168.583 228.874 158.978 221.367 154.64ZM285.42 102.109L249.386 39.631C245.054 32.1188 235.453 29.5409 227.944 33.8813C220.437 38.2198 217.869 47.8241 222.2 55.3332L258.234 117.811C262.566 125.324 272.167 127.901 279.676 123.561C287.183 119.222 289.751 109.618 285.42 102.109ZM559.363 349.987L496.951 313.915C489.441 309.575 479.841 312.153 475.508 319.665C471.177 327.174 473.745 336.779 481.252 341.117L543.665 377.189C551.174 381.529 560.775 378.951 565.107 371.439C569.438 363.93 566.87 354.326 559.363 349.987ZM480.562 440.461L444.528 377.983C440.196 370.471 430.595 367.893 423.086 372.233C415.579 376.572 413.011 386.176 417.342 393.685L453.375 456.164C457.708 463.676 467.308 466.254 474.818 461.913C482.325 457.575 484.893 447.97 480.562 440.461ZM366.95 88.5306V16.5487C366.95 7.88007 359.928 0.843751 351.256 0.84375C342.584 0.84375 335.562 7.88007 335.562 16.5487V88.5306C335.562 97.1993 342.584 104.236 351.256 104.236C359.928 104.236 366.95 97.1993 366.95 88.5306ZM366.95 479.447V407.096C366.95 398.428 359.928 391.391 351.256 391.391C342.584 391.391 335.562 398.428 335.562 407.096V479.447C335.562 488.116 342.584 495.152 351.256 495.152C359.928 495.152 366.95 488.116 366.95 479.447ZM444.488 117.966L480.522 55.4877C484.853 47.9786 482.285 38.3744 474.778 34.0357C467.268 29.6954 457.668 32.2733 453.335 39.7855L417.301 102.264C412.97 109.773 415.538 119.377 423.045 123.716C430.555 128.056 440.155 125.478 444.488 117.966ZM496.962 182.086L559.375 146.015C566.881 141.676 569.449 132.072 565.118 124.563C560.786 117.05 551.185 114.472 543.676 118.813L481.263 154.885C473.756 159.223 471.188 168.827 475.519 176.337C479.852 183.849 489.452 186.427 496.962 182.086ZM361.95 16.5487C361.95 10.6365 357.162 5.84375 351.256 5.84375C345.35 5.84375 340.562 10.6365 340.562 16.5487V88.5306C340.562 94.4428 345.35 99.2356 351.256 99.2356C357.162 99.2356 361.95 94.4428 361.95 88.5306V16.5487ZM230.446 38.2102C235.561 35.2538 242.102 37.0083 245.055 42.129L281.089 104.607C284.042 109.728 282.29 116.276 277.174 119.232C272.059 122.189 265.518 120.434 262.565 115.313L226.531 52.8352C223.578 47.7145 225.33 41.1667 230.446 38.2102ZM156.452 122.897C151.337 119.941 144.796 121.695 141.843 126.816C138.89 131.937 140.642 138.484 145.757 141.441L208.17 177.513C213.285 180.469 219.826 178.715 222.78 173.594C225.733 168.473 223.98 161.925 218.865 158.969L156.452 122.897ZM499.494 247.998C499.494 242.086 504.281 237.293 510.187 237.293H582.462C588.368 237.293 593.156 242.086 593.156 247.998C593.156 253.91 588.368 258.703 582.462 258.703H510.187C504.281 258.703 499.494 253.91 499.494 247.998ZM494.449 318.244C489.334 315.288 482.793 317.042 479.839 322.163C476.886 327.284 478.639 333.832 483.754 336.788L546.167 372.86C551.282 375.816 557.823 374.062 560.776 368.941C563.729 363.82 561.977 357.273 556.862 354.316L494.449 318.244ZM425.587 376.562C430.703 373.606 437.244 375.36 440.197 380.481L476.231 442.959C479.184 448.08 477.432 454.628 472.316 457.584C467.201 460.541 460.66 458.786 457.707 453.666L421.673 391.187C418.72 386.067 420.472 379.519 425.587 376.562ZM351.256 396.391C357.162 396.391 361.95 401.184 361.95 407.096V479.447C361.95 485.36 357.162 490.152 351.256 490.152C345.35 490.152 340.562 485.36 340.562 479.447V407.096C340.562 401.184 345.35 396.391 351.256 396.391ZM476.19 52.9897C479.144 47.869 477.391 41.3212 472.276 38.3647C467.16 35.4083 460.62 37.1628 457.666 42.2835L421.632 104.762C418.679 109.882 420.432 116.43 425.547 119.387C430.662 122.343 437.203 120.589 440.157 115.468L476.19 52.9897ZM556.873 141.686C561.988 138.729 563.741 132.181 560.787 127.061C557.834 121.94 551.293 120.185 546.178 123.142L483.765 159.214C478.65 162.17 476.897 168.718 479.85 173.839C482.804 178.959 489.345 180.714 494.46 177.757L556.873 141.686Z" fill="black"/>
</svg>
