<svg width="395" height="483" viewBox="0 0 395 483" fill="none" xmlns="http://www.w3.org/2000/svg">
<path d="M4.82538 345.127C0.130497 353.259 2.91665 363.657 11.0484 368.351C19.1802 373.046 29.5783 370.26 34.2731 362.128L83.1326 277.501C87.8275 269.37 85.0413 258.971 76.9096 254.277C68.7778 249.582 58.3797 252.368 53.6848 260.5L4.82538 345.127ZM40.8254 454.627C36.1305 462.759 38.9166 473.157 47.0484 477.851C55.1802 482.546 65.5783 479.76 70.2731 471.628L119.133 387.001C123.827 378.87 121.041 368.471 112.91 363.777C104.778 359.082 94.3797 361.868 89.6848 370L40.8254 454.627ZM268.825 454.627C264.131 462.759 266.917 473.157 275.048 477.851C283.18 482.546 293.578 479.76 298.273 471.628L347.133 387.001C351.827 378.87 349.041 368.471 340.91 363.777C332.778 359.082 322.38 361.868 317.685 370L268.825 454.627ZM252.133 376.001C254.472 371.949 254.954 367.335 253.843 363.144C252.725 358.688 249.815 354.697 245.459 352.333L196.387 325.709L236.633 256.001C239.024 251.859 239.475 247.129 238.266 242.865C255.848 231.25 268.708 213.065 273.348 191.808C283.876 196.704 295.614 199.437 307.99 199.437C353.415 199.437 390.24 162.613 390.24 117.187C390.24 71.7621 353.415 34.9375 307.99 34.9375C296.376 34.9375 285.325 37.3444 275.308 41.6866C260.779 18.4182 234.942 2.9375 205.49 2.9375C167.396 2.9375 135.352 28.8336 125.999 63.9818C114.631 58.047 101.702 54.6914 87.9896 54.6914C42.5642 54.6914 5.73961 91.516 5.73961 136.941C5.73961 182.367 42.5642 219.191 87.9896 219.191C99.4416 219.191 110.347 216.851 120.253 212.622C134.053 238.683 161.448 256.437 192.99 256.437C194.394 256.437 195.79 256.402 197.178 256.333L158.325 323.626C154.062 331.011 155.968 340.263 162.443 345.418C163.438 346.324 164.558 347.126 165.794 347.797L214.04 373.973L173.825 443.626C169.131 451.758 171.917 462.156 180.049 466.851C188.18 471.546 198.578 468.76 203.273 460.628L252.133 376.001ZM311.825 309.127C307.131 317.259 309.917 327.657 318.048 332.351C326.18 337.046 336.578 334.26 341.273 326.128L390.133 241.501C394.827 233.37 392.041 222.971 383.91 218.277C375.778 213.582 365.38 216.368 360.685 224.5L311.825 309.127Z" stroke="black" stroke-width="5"/>
</svg>
