<svg width="334" height="498" viewBox="0 0 334 498" fill="none" xmlns="http://www.w3.org/2000/svg">
<path d="M4.47182 289.163C0.411791 296.195 2.8212 305.187 9.85336 309.247C16.8855 313.307 25.8775 310.898 29.9376 303.866L71.0512 232.655C75.1112 225.623 72.7018 216.631 65.6696 212.571C58.6375 208.51 49.6455 210.92 45.5854 217.952L4.47182 289.163ZM34.7646 381.303C30.7046 388.336 33.114 397.328 40.1461 401.388C47.1783 405.448 56.1703 403.038 60.2304 396.006L101.344 324.795C105.404 317.763 102.995 308.771 95.9624 304.711C88.9302 300.651 79.9382 303.06 75.8782 310.093L34.7646 381.303ZM226.619 381.303C222.559 388.336 224.968 397.328 232 401.388C239.033 405.448 248.025 403.038 252.085 396.006L293.198 324.795C297.258 317.763 294.849 308.771 287.817 304.711C280.784 300.651 271.792 303.06 267.732 310.093L226.619 381.303ZM65.0574 473.444C60.9973 480.476 63.4067 489.468 70.4389 493.528C77.4711 497.588 86.4631 495.179 90.5231 488.147L131.637 416.936C135.697 409.904 133.287 400.912 126.255 396.852C119.223 392.792 110.231 395.201 106.171 402.233L65.0574 473.444ZM145.838 329.133C141.778 336.165 144.187 345.157 151.22 349.217C158.252 353.277 167.244 350.867 171.304 343.835L212.417 272.624C216.477 265.592 214.068 256.6 207.036 252.54C200.004 248.48 191.012 250.89 186.952 257.922L145.838 329.133ZM262.802 258.87C258.742 265.902 261.151 274.894 268.183 278.954C275.216 283.014 284.208 280.605 288.268 273.573L329.381 202.362C333.441 195.33 331.032 186.338 324 182.278C316.967 178.218 307.976 180.627 303.915 187.659L262.802 258.87ZM74.7949 183.787C83.7158 183.787 92.2446 182.109 100.083 179.051C111.679 201.364 135.003 216.604 161.887 216.604C195.04 216.604 222.78 193.426 229.786 162.39C238.58 166.404 248.357 168.641 258.655 168.641C297.098 168.641 328.262 137.477 328.262 99.0338C328.262 60.591 297.098 29.4269 258.655 29.4269C248.948 29.4269 239.704 31.4141 231.31 35.0039C218.982 15.4731 197.208 2.5 172.405 2.5C141.012 2.5 114.472 23.2826 105.795 51.8402C96.4596 47.1892 85.9328 44.5733 74.7949 44.5733C36.3521 44.5733 5.18801 75.7374 5.18801 114.18C5.18801 152.623 36.3521 183.787 74.7949 183.787Z" stroke="black" stroke-width="5"/>
</svg>
