<svg width="326" height="483" viewBox="0 0 326 483" fill="none" xmlns="http://www.w3.org/2000/svg">
<path d="M73.7073 178.351C82.3385 178.351 90.5915 176.732 98.1792 173.781C109.441 195.396 132.054 210.156 158.113 210.156C190.248 210.156 217.141 187.713 223.973 157.646C232.484 161.516 241.939 163.672 251.898 163.672C289.198 163.672 319.435 133.434 319.435 96.1341C319.435 58.8341 289.198 28.5966 251.898 28.5966C242.502 28.5966 233.555 30.5152 225.426 33.982C213.458 15.0627 192.35 2.5 168.307 2.5C137.879 2.5 112.151 22.6225 103.704 50.2861C94.6666 45.7988 84.4816 43.2759 73.7073 43.2759C36.4074 43.2759 6.16983 73.5134 6.16983 110.813C6.16983 148.113 36.4074 178.351 73.7073 178.351ZM57.8047 235.029C66.054 235.029 72.7414 228.342 72.7414 220.093C72.7414 211.843 66.054 205.156 57.8047 205.156C49.5555 205.156 42.8681 211.843 42.8681 220.093C42.8681 228.342 49.5555 235.029 57.8047 235.029ZM17.4366 303.125C25.6859 303.125 32.3733 296.438 32.3733 288.188C32.3733 279.939 25.6859 273.252 17.4366 273.252C9.18737 273.252 2.5 279.939 2.5 288.188C2.5 296.438 9.18736 303.125 17.4366 303.125ZM86.3478 322.29C94.5971 322.29 101.284 315.602 101.284 307.353C101.284 299.104 94.5971 292.416 86.3478 292.416C78.0986 292.416 71.4112 299.104 71.4112 307.353C71.4112 315.602 78.0986 322.29 86.3478 322.29ZM45.9797 390.385C54.229 390.385 60.9164 383.698 60.9164 375.449C60.9164 367.199 54.229 360.512 45.9797 360.512C37.7305 360.512 31.0431 367.199 31.0431 375.449C31.0431 383.698 37.7305 390.385 45.9797 390.385ZM194.812 272.951C203.061 272.951 209.748 266.263 209.748 258.014C209.748 249.765 203.061 243.078 194.812 243.078C186.562 243.078 179.875 249.765 179.875 258.014C179.875 266.263 186.562 272.951 194.812 272.951ZM154.444 341.047C162.693 341.047 169.38 334.359 169.38 326.11C169.38 317.861 162.693 311.173 154.444 311.173C146.194 311.173 139.507 317.861 139.507 326.11C139.507 334.359 146.194 341.047 154.444 341.047ZM272.694 323.513C280.943 323.513 287.63 316.826 287.63 308.576C287.63 300.327 280.943 293.64 272.694 293.64C264.444 293.64 257.757 300.327 257.757 308.576C257.757 316.826 264.444 323.513 272.694 323.513ZM232.325 391.609C240.575 391.609 247.262 384.921 247.262 376.672C247.262 368.423 240.575 361.735 232.325 361.735C224.076 361.735 217.389 368.423 217.389 376.672C217.389 384.921 224.076 391.609 232.325 391.609ZM308.169 204.855C316.418 204.855 323.105 198.168 323.105 189.919C323.105 181.669 316.418 174.982 308.169 174.982C299.919 174.982 293.232 181.669 293.232 189.919C293.232 198.168 299.919 204.855 308.169 204.855ZM267.8 272.951C276.05 272.951 282.737 266.263 282.737 258.014C282.737 249.765 276.05 243.078 267.8 243.078C259.551 243.078 252.864 249.765 252.864 258.014C252.864 266.263 259.551 272.951 267.8 272.951ZM116.93 412.404C125.179 412.404 131.866 405.717 131.866 397.468C131.866 389.218 125.179 382.531 116.93 382.531C108.68 382.531 101.993 389.218 101.993 397.468C101.993 405.717 108.68 412.404 116.93 412.404ZM76.5616 480.5C84.8109 480.5 91.4983 473.813 91.4983 465.563C91.4983 457.314 84.8109 450.627 76.5616 450.627C68.3124 450.627 61.625 457.314 61.625 465.563C61.625 473.813 68.3124 480.5 76.5616 480.5Z" stroke="black" stroke-width="5"/>
</svg>
