<svg width="488" height="488" viewBox="0 0 488 488" fill="none" xmlns="http://www.w3.org/2000/svg">
<path d="M354.945 244C354.945 305.273 305.273 354.945 244 354.945C182.727 354.945 133.055 305.273 133.055 244C133.055 182.727 182.727 133.055 244 133.055C305.273 133.055 354.945 182.727 354.945 244ZM2.5 244C2.5 239.423 6.21003 235.713 10.7866 235.713H83.3171C87.8936 235.713 91.6037 239.423 91.6037 244C91.6037 248.577 87.8936 252.287 83.3171 252.287H10.7866C6.21003 252.287 2.5 248.577 2.5 244ZM396.024 244C396.024 239.423 399.734 235.713 404.311 235.713H477.213C481.79 235.713 485.5 239.423 485.5 244C485.5 248.577 481.79 252.287 477.213 252.287H404.311C399.734 252.287 396.024 248.577 396.024 244ZM34.9339 123.144C37.2225 119.18 42.2913 117.822 46.2553 120.111L109.21 156.457C113.174 158.746 114.532 163.815 112.243 167.779C109.955 171.743 104.886 173.101 100.922 170.812L37.9675 134.465C34.0035 132.177 32.6453 127.108 34.9339 123.144ZM123.391 34.7783C127.355 32.4896 132.424 33.8478 134.712 37.8118L171.059 100.766C173.347 104.73 171.989 109.799 168.025 112.088C164.061 114.376 158.993 113.018 156.704 109.054L120.357 46.0996C118.069 42.1356 119.427 37.0669 123.391 34.7783ZM375.865 319.98C378.153 316.016 383.222 314.658 387.186 316.947L450.14 353.294C454.104 355.582 455.463 360.651 453.174 364.615C450.885 368.579 445.816 369.937 441.853 367.648L378.898 331.302C374.934 329.013 373.576 323.944 375.865 319.98ZM320.227 375.709C324.191 373.421 329.259 374.779 331.548 378.743L367.895 441.697C370.183 445.661 368.825 450.73 364.861 453.019C360.897 455.307 355.828 453.949 353.54 449.985L317.193 387.031C314.905 383.067 316.263 377.998 320.227 375.709ZM244 2.5C248.577 2.5 252.287 6.21003 252.287 10.7866V83.3171C252.287 87.8936 248.577 91.6037 244 91.6037C239.423 91.6037 235.713 87.8936 235.713 83.3171V10.7866C235.713 6.21003 239.423 2.5 244 2.5ZM244 396.024C248.577 396.024 252.287 399.734 252.287 404.311V477.213C252.287 481.79 248.577 485.5 244 485.5C239.423 485.5 235.713 481.79 235.713 477.213V404.311C235.713 399.734 239.423 396.024 244 396.024ZM364.82 34.9339C368.784 37.2225 370.142 42.2913 367.854 46.2553L331.507 109.21C329.219 113.174 324.15 114.532 320.186 112.243C316.222 109.955 314.864 104.886 317.152 100.922L353.499 37.9675C355.788 34.0035 360.856 32.6453 364.82 34.9339ZM167.983 375.865C171.947 378.154 173.305 383.222 171.017 387.186L134.67 450.141C132.382 454.105 127.313 455.463 123.349 453.174C119.385 450.886 118.027 445.817 120.315 441.853L156.662 378.899C158.951 374.935 164.019 373.576 167.983 375.865ZM453.185 123.391C455.474 127.355 454.116 132.424 450.151 134.712L387.197 171.059C383.233 173.347 378.164 171.989 375.876 168.025C373.587 164.061 374.945 158.993 378.909 156.704L441.864 120.357C445.828 118.069 450.896 119.427 453.185 123.391ZM112.254 320.227C114.543 324.191 113.185 329.26 109.221 331.548L46.2665 367.895C42.3025 370.184 37.2337 368.826 34.9451 364.862C32.6565 360.898 34.0146 355.829 37.9786 353.54L100.933 317.194C104.897 314.905 109.966 316.263 112.254 320.227Z" stroke="black" stroke-width="5"/>
</svg>
